<?xml version="1.0" encoding="utf-8"?>
<!-- Generator: Adobe Illustrator 23.0.0, SVG Export Plug-In . SVG Version: 6.00 Build 0)  -->
<svg version="1.1" id="_x37_50_x__x_500_px" xmlns="http://www.w3.org/2000/svg" xmlns:xlink="http://www.w3.org/1999/xlink"
	 x="0px" y="0px" viewBox="0 0 750 500" style="enable-background:new 0 0 750 500;" xml:space="preserve">
<style type="text/css">
	.st0{opacity:0.4;}
	.st1{fill:url(#XMLID_2_);}
	.st2{fill:url(#XMLID_3_);}
	.st3{fill:url(#XMLID_4_);}
	.st4{fill:url(#XMLID_5_);}
	.st5{fill:#FFFFFF;}
</style>
<g>
	<g>
		<g id="XMLID_25_" class="st0">
			
				<image style="overflow:visible;" width="815" height="300" xlink:href="1A0BB36D6A47C3A0.png"  transform="matrix(1 0 0 1 -33 95)">
			</image>
		</g>
		<g id="XMLID_23_" class="st0">
			<linearGradient id="XMLID_2_" gradientUnits="userSpaceOnUse" x1="3.5344" y1="244.9652" x2="745.0626" y2="244.9652">
				<stop  offset="0" style="stop-color:#333A70"/>
				<stop  offset="0.118" style="stop-color:#7E4D6A"/>
				<stop  offset="0.2472" style="stop-color:#CE695A"/>
				<stop  offset="0.2532" style="stop-color:#CE6A59"/>
				<stop  offset="0.3588" style="stop-color:#D37D4D"/>
				<stop  offset="0.4326" style="stop-color:#D58449"/>
				<stop  offset="0.5449" style="stop-color:#E8BF67"/>
				<stop  offset="0.5455" style="stop-color:#DFC177"/>
				<stop  offset="0.5471" style="stop-color:#C6C5A2"/>
				<stop  offset="0.5485" style="stop-color:#B4C8C1"/>
				<stop  offset="0.5497" style="stop-color:#A9C9D4"/>
				<stop  offset="0.5506" style="stop-color:#A5CADB"/>
				<stop  offset="0.6742" style="stop-color:#549AB3"/>
				<stop  offset="0.9101" style="stop-color:#628DA1"/>
				<stop  offset="1" style="stop-color:#0C7B8B"/>
			</linearGradient>
			<polygon id="XMLID_24_" class="st1" points="745.06,244.97 742.17,288.4 739.27,262.97 736.38,304.29 733.48,250.26 
				730.59,255.56 727.7,249.2 724.8,260.86 721.91,249.2 719.01,262.97 716.12,249.2 713.22,253.44 710.33,248.14 707.43,264.03 
				704.54,248.14 701.64,277.81 698.75,248.14 695.85,268.27 692.96,249.2 690.07,277.81 687.17,252.38 684.28,265.09 
				681.38,256.62 678.49,275.69 675.59,252.38 672.7,292.64 669.8,259.8 666.91,309.59 664.01,267.21 661.12,333.95 658.22,272.51 
				655.33,338.19 652.44,278.87 649.54,356.2 646.65,300.05 643.75,354.08 640.86,321.24 637.96,358.32 635.07,296.88 
				632.17,351.96 629.28,287.34 626.38,323.36 623.49,273.57 620.59,306.41 617.7,248.14 614.81,285.22 611.91,248.14 
				609.02,260.86 606.12,247.08 603.23,251.32 600.33,248.14 597.44,252.38 594.54,250.26 591.65,260.86 588.75,248.14 
				585.86,264.03 582.96,247.08 580.07,251.32 577.18,248.14 574.28,264.03 571.39,250.26 568.49,257.68 565.6,252.38 562.7,272.51 
				559.81,255.56 556.91,305.35 554.02,251.32 551.12,278.87 548.23,251.32 545.34,294.76 542.44,255.56 539.55,329.72 
				536.65,256.62 533.76,354.08 530.86,276.75 527.97,323.36 525.07,270.39 522.18,307.47 519.28,248.14 516.39,276.75 
				513.49,248.14 510.6,262.97 507.71,249.2 504.81,274.63 501.92,249.2 499.02,269.33 496.13,248.14 493.23,264.03 490.34,248.14 
				487.44,293.7 484.55,286.28 481.65,312.77 478.76,268.27 475.86,298.99 472.97,278.87 470.08,288.4 467.18,267.21 464.29,329.72 
				461.39,278.87 458.5,347.73 455.6,277.81 452.71,356.2 449.81,292.64 446.92,357.26 444.02,273.57 441.13,324.42 438.23,270.39 
				435.34,302.17 432.45,252.38 429.55,272.51 426.66,249.2 423.76,275.69 420.87,254.5 417.97,298.99 415.08,265.09 412.18,279.93 
				409.29,257.68 406.39,272.51 403.5,244.97 400.6,258.74 397.71,247.08 394.82,270.39 391.92,246.02 389.03,259.8 386.13,250.26 
				383.24,254.5 380.34,244.97 377.45,251.32 374.55,244.97 371.15,288.4 368.25,262.97 365.36,304.29 362.47,250.26 359.57,255.56 
				356.68,249.2 353.78,260.86 350.89,249.2 347.99,262.97 345.1,249.2 342.2,253.44 339.31,248.14 336.41,264.03 333.52,248.14 
				330.62,277.81 327.73,248.14 324.84,268.27 321.94,249.2 319.05,277.81 316.15,252.38 313.26,265.09 310.36,256.62 
				307.47,275.69 304.57,252.38 301.68,292.64 298.78,259.8 295.89,309.59 292.99,267.21 290.1,333.95 287.21,272.51 284.31,338.19 
				281.42,278.87 278.52,356.2 275.63,300.05 272.73,354.08 269.84,321.24 266.94,358.32 264.05,296.88 261.15,351.96 
				258.26,287.34 255.36,323.36 252.47,273.57 249.58,306.41 246.68,248.14 243.79,285.22 240.89,248.14 238,260.86 235.1,247.08 
				232.21,251.32 229.31,248.14 226.42,252.38 223.52,250.26 220.63,260.86 217.74,248.14 214.84,264.03 211.95,247.08 
				209.05,251.32 206.16,248.14 203.26,264.03 200.37,250.26 197.47,257.68 194.58,252.38 191.68,272.51 188.79,255.56 
				185.89,305.35 183,251.32 180.11,278.87 177.21,251.32 174.32,294.76 171.42,255.56 168.53,329.72 165.63,256.62 162.74,354.08 
				159.84,276.75 156.95,323.36 154.05,270.39 151.16,307.47 148.26,248.14 145.37,276.75 142.48,248.14 139.58,262.97 
				136.69,249.2 133.79,274.63 130.9,249.2 128,269.33 125.11,248.14 122.21,264.03 119.32,248.14 116.42,293.7 113.53,286.28 
				110.63,312.77 107.74,268.27 104.85,298.99 101.95,278.87 99.06,288.4 96.16,267.21 93.27,329.72 90.37,278.87 87.48,347.73 
				84.58,277.81 81.69,356.2 78.79,292.64 75.9,357.26 73,273.57 70.11,324.42 67.22,270.39 64.32,302.17 61.43,252.38 
				58.53,272.51 55.64,249.2 52.74,275.69 49.85,254.5 46.95,298.99 44.06,265.09 41.16,279.93 38.27,257.68 35.38,272.51 
				32.48,244.97 29.59,258.74 26.69,247.08 23.8,270.39 20.9,246.02 18.01,259.8 15.11,250.26 12.22,254.5 9.32,244.97 6.43,251.32 
				3.53,244.97 6.43,238.61 9.32,244.97 12.22,235.43 15.11,239.67 18.01,230.13 20.9,243.91 23.8,219.54 26.69,242.85 
				29.59,231.19 32.48,244.97 35.38,217.42 38.27,232.25 41.16,210.01 44.06,224.84 46.95,190.94 49.85,235.43 52.74,214.24 
				55.64,240.73 58.53,217.42 61.43,237.55 64.32,187.76 67.22,219.54 70.11,165.51 73,216.36 75.9,132.67 78.79,197.29 
				81.69,133.73 84.58,212.12 87.48,142.2 90.37,211.06 93.27,160.21 96.16,222.72 99.06,201.53 101.95,211.06 104.85,190.94 
				107.74,221.66 110.63,177.16 113.53,203.65 116.42,196.23 119.32,241.79 122.21,225.9 125.11,241.79 128,220.6 130.9,240.73 
				133.79,215.3 136.69,240.73 139.58,226.96 142.48,241.79 145.37,213.18 148.26,241.79 151.16,182.46 154.05,219.54 
				156.95,166.57 159.84,213.18 162.74,135.85 165.63,233.31 168.53,160.21 171.42,234.37 174.32,195.17 177.21,238.61 
				180.11,211.06 183,238.61 185.89,184.58 188.79,234.37 191.68,217.42 194.58,237.55 197.47,232.25 200.37,239.67 203.26,225.9 
				206.16,241.79 209.05,238.61 211.95,242.85 214.84,225.9 217.74,241.79 220.63,229.07 223.52,239.67 226.42,237.55 
				229.31,241.79 232.21,238.61 235.1,242.85 238,229.07 240.89,241.79 243.79,204.71 246.68,241.79 249.58,183.52 252.47,216.36 
				255.36,166.57 258.26,202.59 261.15,137.97 264.05,193.06 266.94,131.61 269.84,168.69 272.73,135.85 275.63,189.88 
				278.52,133.73 281.42,211.06 284.31,151.74 287.21,217.42 290.1,155.98 292.99,222.72 295.89,180.34 298.78,230.13 
				301.68,197.29 304.57,237.55 307.47,214.24 310.36,233.31 313.26,224.84 316.15,237.55 319.05,212.12 321.94,240.73 
				324.84,221.66 327.73,241.79 330.62,212.12 333.52,241.79 336.41,225.9 339.31,241.79 342.2,236.49 345.1,240.73 347.99,226.96 
				350.89,240.73 353.78,229.07 356.68,240.73 359.57,234.37 362.47,239.67 365.36,185.64 368.25,226.96 371.15,201.53 
				374.55,244.97 377.45,238.61 380.34,244.97 383.24,235.43 386.13,239.67 389.03,230.13 391.92,243.91 394.82,219.54 
				397.71,242.85 400.6,231.19 403.5,244.97 406.39,217.42 409.29,232.25 412.18,210.01 415.08,224.84 417.97,190.94 420.87,235.43 
				423.76,214.24 426.66,240.73 429.55,217.42 432.45,237.55 435.34,187.76 438.23,219.54 441.13,165.51 444.02,216.36 
				446.92,132.67 449.81,197.29 452.71,133.73 455.6,212.12 458.5,142.2 461.39,211.06 464.29,160.21 467.18,222.72 470.08,201.53 
				472.97,211.06 475.86,190.94 478.76,221.66 481.65,177.16 484.55,203.65 487.44,196.23 490.34,241.79 493.23,225.9 
				496.13,241.79 499.02,220.6 501.92,240.73 504.81,215.3 507.71,240.73 510.6,226.96 513.49,241.79 516.39,213.18 519.28,241.79 
				522.18,182.46 525.07,219.54 527.97,166.57 530.86,213.18 533.76,135.85 536.65,233.31 539.55,160.21 542.44,234.37 
				545.34,195.17 548.23,238.61 551.12,211.06 554.02,238.61 556.91,184.58 559.81,234.37 562.7,217.42 565.6,237.55 568.49,232.25 
				571.39,239.67 574.28,225.9 577.18,241.79 580.07,238.61 582.96,242.85 585.86,225.9 588.75,241.79 591.65,229.07 594.54,239.67 
				597.44,237.55 600.33,241.79 603.23,238.61 606.12,242.85 609.02,229.07 611.91,241.79 614.81,204.71 617.7,241.79 
				620.59,183.52 623.49,216.36 626.38,166.57 629.28,202.59 632.17,137.97 635.07,193.06 637.96,131.61 640.86,168.69 
				643.75,135.85 646.65,189.88 649.54,133.73 652.44,211.06 655.33,151.74 658.22,217.42 661.12,155.98 664.01,222.72 
				666.91,180.34 669.8,230.13 672.7,197.29 675.59,237.55 678.49,214.24 681.38,233.31 684.28,224.84 687.17,237.55 690.07,212.12 
				692.96,240.73 695.85,221.66 698.75,241.79 701.64,212.12 704.54,241.79 707.43,225.9 710.33,241.79 713.22,236.49 
				716.12,240.73 719.01,226.96 721.91,240.73 724.8,229.07 727.7,240.73 730.59,234.37 733.48,239.67 736.38,185.64 739.27,226.96 
				742.17,201.53 			"/>
		</g>
		<g id="XMLID_21_" class="st0">
			<linearGradient id="XMLID_3_" gradientUnits="userSpaceOnUse" x1="3.5344" y1="244.9652" x2="745.0626" y2="244.9652">
				<stop  offset="0" style="stop-color:#0C7B8B"/>
				<stop  offset="0.0899" style="stop-color:#628DA1"/>
				<stop  offset="0.3258" style="stop-color:#549AB3"/>
				<stop  offset="0.4494" style="stop-color:#A5CADB"/>
				<stop  offset="0.4503" style="stop-color:#A9C9D4"/>
				<stop  offset="0.4515" style="stop-color:#B4C8C1"/>
				<stop  offset="0.4529" style="stop-color:#C6C5A2"/>
				<stop  offset="0.4545" style="stop-color:#DFC177"/>
				<stop  offset="0.4551" style="stop-color:#E8BF67"/>
				<stop  offset="0.5674" style="stop-color:#D58449"/>
				<stop  offset="0.6412" style="stop-color:#D37D4D"/>
				<stop  offset="0.7468" style="stop-color:#CE6A59"/>
				<stop  offset="0.7528" style="stop-color:#CE695A"/>
				<stop  offset="0.882" style="stop-color:#7E4D6A"/>
				<stop  offset="1" style="stop-color:#333A70"/>
			</linearGradient>
			<polygon id="XMLID_22_" class="st2" points="745.06,244.97 742.17,270.9 739.27,255.72 736.38,280.38 733.48,248.13 
				730.59,251.29 727.7,247.5 724.8,254.45 721.91,247.5 719.01,255.72 716.12,247.5 713.22,250.02 710.33,246.86 707.43,256.35 
				704.54,246.86 701.64,264.57 698.75,246.86 695.85,258.88 692.96,247.5 690.07,264.57 687.17,249.39 684.28,256.98 
				681.38,251.92 678.49,263.31 675.59,249.39 672.7,273.43 669.8,253.82 666.91,283.54 664.01,258.25 661.12,298.09 658.22,261.41 
				655.33,300.62 652.44,265.2 649.54,311.37 646.65,277.85 643.75,310.11 640.86,290.5 637.96,312.64 635.07,275.96 632.17,308.84 
				629.28,270.26 626.38,291.77 623.49,262.04 620.59,281.65 617.7,246.86 614.81,269 611.91,246.86 609.02,254.45 606.12,246.23 
				603.23,248.76 600.33,246.86 597.44,249.39 594.54,248.13 591.65,254.45 588.75,246.86 585.86,256.35 582.96,246.23 
				580.07,248.76 577.18,246.86 574.28,256.35 571.39,248.13 568.49,252.55 565.6,249.39 562.7,261.41 559.81,251.29 556.91,281.01 
				554.02,248.76 551.12,265.2 548.23,248.76 545.34,274.69 542.44,251.29 539.55,295.56 536.65,251.92 533.76,310.11 
				530.86,263.94 527.97,291.77 525.07,260.14 522.18,282.28 519.28,246.86 516.39,263.94 513.49,246.86 510.6,255.72 507.71,247.5 
				504.81,262.67 501.92,247.5 499.02,259.51 496.13,246.86 493.23,256.35 490.34,246.86 487.44,274.06 484.55,269.63 
				481.65,285.44 478.76,258.88 475.86,277.22 472.97,265.2 470.08,270.9 467.18,258.25 464.29,295.56 461.39,265.2 458.5,306.31 
				455.6,264.57 452.71,311.37 449.81,273.43 446.92,312 444.02,262.04 441.13,292.4 438.23,260.14 435.34,279.12 432.45,249.39 
				429.55,261.41 426.66,247.5 423.76,263.31 420.87,250.66 417.97,277.22 415.08,256.98 412.18,265.84 409.29,252.55 
				406.39,261.41 403.5,244.97 400.6,253.19 397.71,246.23 394.82,260.14 391.92,245.6 389.03,253.82 386.13,248.13 383.24,250.66 
				380.34,244.97 377.45,248.76 374.55,244.97 371.15,270.9 368.25,255.72 365.36,280.38 362.47,248.13 359.57,251.29 356.68,247.5 
				353.78,254.45 350.89,247.5 347.99,255.72 345.1,247.5 342.2,250.02 339.31,246.86 336.41,256.35 333.52,246.86 330.62,264.57 
				327.73,246.86 324.84,258.88 321.94,247.5 319.05,264.57 316.15,249.39 313.26,256.98 310.36,251.92 307.47,263.31 
				304.57,249.39 301.68,273.43 298.78,253.82 295.89,283.54 292.99,258.25 290.1,298.09 287.21,261.41 284.31,300.62 281.42,265.2 
				278.52,311.37 275.63,277.85 272.73,310.11 269.84,290.5 266.94,312.64 264.05,275.96 261.15,308.84 258.26,270.26 
				255.36,291.77 252.47,262.04 249.58,281.65 246.68,246.86 243.79,269 240.89,246.86 238,254.45 235.1,246.23 232.21,248.76 
				229.31,246.86 226.42,249.39 223.52,248.13 220.63,254.45 217.74,246.86 214.84,256.35 211.95,246.23 209.05,248.76 
				206.16,246.86 203.26,256.35 200.37,248.13 197.47,252.55 194.58,249.39 191.68,261.41 188.79,251.29 185.89,281.01 183,248.76 
				180.11,265.2 177.21,248.76 174.32,274.69 171.42,251.29 168.53,295.56 165.63,251.92 162.74,310.11 159.84,263.94 
				156.95,291.77 154.05,260.14 151.16,282.28 148.26,246.86 145.37,263.94 142.48,246.86 139.58,255.72 136.69,247.5 
				133.79,262.67 130.9,247.5 128,259.51 125.11,246.86 122.21,256.35 119.32,246.86 116.42,274.06 113.53,269.63 110.63,285.44 
				107.74,258.88 104.85,277.22 101.95,265.2 99.06,270.9 96.16,258.25 93.27,295.56 90.37,265.2 87.48,306.31 84.58,264.57 
				81.69,311.37 78.79,273.43 75.9,312 73,262.04 70.11,292.4 67.22,260.14 64.32,279.12 61.43,249.39 58.53,261.41 55.64,247.5 
				52.74,263.31 49.85,250.66 46.95,277.22 44.06,256.98 41.16,265.84 38.27,252.55 35.38,261.41 32.48,244.97 29.59,253.19 
				26.69,246.23 23.8,260.14 20.9,245.6 18.01,253.82 15.11,248.13 12.22,250.66 9.32,244.97 6.43,248.76 3.53,244.97 6.43,241.17 
				9.32,244.97 12.22,239.27 15.11,241.8 18.01,236.11 20.9,244.33 23.8,229.79 26.69,243.7 29.59,236.74 32.48,244.97 
				35.38,228.52 38.27,237.38 41.16,224.09 44.06,232.95 46.95,212.71 49.85,239.27 52.74,226.62 55.64,242.44 58.53,228.52 
				61.43,240.54 64.32,210.81 67.22,229.79 70.11,197.53 73,227.89 75.9,177.93 78.79,216.51 81.69,178.56 84.58,225.36 
				87.48,183.62 90.37,224.73 93.27,194.37 96.16,231.68 99.06,219.04 101.95,224.73 104.85,212.71 107.74,231.05 110.63,204.49 
				113.53,220.3 116.42,215.87 119.32,243.07 122.21,233.58 125.11,243.07 128,230.42 130.9,242.44 133.79,227.26 136.69,242.44 
				139.58,234.21 142.48,243.07 145.37,225.99 148.26,243.07 151.16,207.65 154.05,229.79 156.95,198.16 159.84,225.99 
				162.74,179.82 165.63,238.01 168.53,194.37 171.42,238.64 174.32,215.24 177.21,241.17 180.11,224.73 183,241.17 185.89,208.92 
				188.79,238.64 191.68,228.52 194.58,240.54 197.47,237.38 200.37,241.8 203.26,233.58 206.16,243.07 209.05,241.17 211.95,243.7 
				214.84,233.58 217.74,243.07 220.63,235.48 223.52,241.8 226.42,240.54 229.31,243.07 232.21,241.17 235.1,243.7 238,235.48 
				240.89,243.07 243.79,220.93 246.68,243.07 249.58,208.28 252.47,227.89 255.36,198.16 258.26,219.67 261.15,181.09 
				264.05,213.98 266.94,177.29 269.84,199.43 272.73,179.82 275.63,212.08 278.52,178.56 281.42,224.73 284.31,189.31 
				287.21,228.52 290.1,191.84 292.99,231.68 295.89,206.39 298.78,236.11 301.68,216.51 304.57,240.54 307.47,226.62 
				310.36,238.01 313.26,232.95 316.15,240.54 319.05,225.36 321.94,242.44 324.84,231.05 327.73,243.07 330.62,225.36 
				333.52,243.07 336.41,233.58 339.31,243.07 342.2,239.91 345.1,242.44 347.99,234.21 350.89,242.44 353.78,235.48 356.68,242.44 
				359.57,238.64 362.47,241.8 365.36,209.55 368.25,234.21 371.15,219.04 374.55,244.97 377.45,241.17 380.34,244.97 
				383.24,239.27 386.13,241.8 389.03,236.11 391.92,244.33 394.82,229.79 397.71,243.7 400.6,236.74 403.5,244.97 406.39,228.52 
				409.29,237.38 412.18,224.09 415.08,232.95 417.97,212.71 420.87,239.27 423.76,226.62 426.66,242.44 429.55,228.52 
				432.45,240.54 435.34,210.81 438.23,229.79 441.13,197.53 444.02,227.89 446.92,177.93 449.81,216.51 452.71,178.56 
				455.6,225.36 458.5,183.62 461.39,224.73 464.29,194.37 467.18,231.68 470.08,219.04 472.97,224.73 475.86,212.71 478.76,231.05 
				481.65,204.49 484.55,220.3 487.44,215.87 490.34,243.07 493.23,233.58 496.13,243.07 499.02,230.42 501.92,242.44 
				504.81,227.26 507.71,242.44 510.6,234.21 513.49,243.07 516.39,225.99 519.28,243.07 522.18,207.65 525.07,229.79 
				527.97,198.16 530.86,225.99 533.76,179.82 536.65,238.01 539.55,194.37 542.44,238.64 545.34,215.24 548.23,241.17 
				551.12,224.73 554.02,241.17 556.91,208.92 559.81,238.64 562.7,228.52 565.6,240.54 568.49,237.38 571.39,241.8 574.28,233.58 
				577.18,243.07 580.07,241.17 582.96,243.7 585.86,233.58 588.75,243.07 591.65,235.48 594.54,241.8 597.44,240.54 600.33,243.07 
				603.23,241.17 606.12,243.7 609.02,235.48 611.91,243.07 614.81,220.93 617.7,243.07 620.59,208.28 623.49,227.89 626.38,198.16 
				629.28,219.67 632.17,181.09 635.07,213.98 637.96,177.29 640.86,199.43 643.75,179.82 646.65,212.08 649.54,178.56 
				652.44,224.73 655.33,189.31 658.22,228.52 661.12,191.84 664.01,231.68 666.91,206.39 669.8,236.11 672.7,216.51 675.59,240.54 
				678.49,226.62 681.38,238.01 684.28,232.95 687.17,240.54 690.07,225.36 692.96,242.44 695.85,231.05 698.75,243.07 
				701.64,225.36 704.54,243.07 707.43,233.58 710.33,243.07 713.22,239.91 716.12,242.44 719.01,234.21 721.91,242.44 
				724.8,235.48 727.7,242.44 730.59,238.64 733.48,241.8 736.38,209.55 739.27,234.21 742.17,219.04 			"/>
		</g>
		<g id="XMLID_19_" class="st0">
			<linearGradient id="XMLID_4_" gradientUnits="userSpaceOnUse" x1="3.5344" y1="244.9652" x2="745.0626" y2="244.9652">
				<stop  offset="0" style="stop-color:#333A70"/>
				<stop  offset="0.118" style="stop-color:#7E4D6A"/>
				<stop  offset="0.2472" style="stop-color:#CE695A"/>
				<stop  offset="0.2532" style="stop-color:#CE6A59"/>
				<stop  offset="0.3588" style="stop-color:#D37D4D"/>
				<stop  offset="0.4326" style="stop-color:#D58449"/>
				<stop  offset="0.5449" style="stop-color:#E8BF67"/>
				<stop  offset="0.5455" style="stop-color:#DFC177"/>
				<stop  offset="0.5471" style="stop-color:#C6C5A2"/>
				<stop  offset="0.5485" style="stop-color:#B4C8C1"/>
				<stop  offset="0.5497" style="stop-color:#A9C9D4"/>
				<stop  offset="0.5506" style="stop-color:#A5CADB"/>
				<stop  offset="0.6742" style="stop-color:#549AB3"/>
				<stop  offset="0.9101" style="stop-color:#628DA1"/>
				<stop  offset="1" style="stop-color:#0C7B8B"/>
			</linearGradient>
			<polygon id="XMLID_20_" class="st3" points="745.06,244.97 742.17,258.01 739.27,250.38 736.38,262.79 733.48,246.56 
				730.59,248.15 727.7,246.24 724.8,249.74 721.91,246.24 719.01,250.38 716.12,246.24 713.22,247.51 710.33,245.92 707.43,250.69 
				704.54,245.92 701.64,254.83 698.75,245.92 695.85,251.97 692.96,246.24 690.07,254.83 687.17,247.19 684.28,251.01 
				681.38,248.47 678.49,254.2 675.59,247.19 672.7,259.29 669.8,249.42 666.91,264.38 664.01,251.65 661.12,271.7 658.22,253.24 
				655.33,272.97 652.44,255.15 649.54,278.38 646.65,261.52 643.75,277.75 640.86,267.88 637.96,279.02 635.07,260.56 
				632.17,277.11 629.28,257.7 626.38,268.52 623.49,253.56 620.59,263.43 617.7,245.92 614.81,257.06 611.91,245.92 609.02,249.74 
				606.12,245.6 603.23,246.87 600.33,245.92 597.44,247.19 594.54,246.56 591.65,249.74 588.75,245.92 585.86,250.69 582.96,245.6 
				580.07,246.87 577.18,245.92 574.28,250.69 571.39,246.56 568.49,248.78 565.6,247.19 562.7,253.24 559.81,248.15 556.91,263.11 
				554.02,246.87 551.12,255.15 548.23,246.87 545.34,259.92 542.44,248.15 539.55,270.43 536.65,248.47 533.76,277.75 
				530.86,254.51 527.97,268.52 525.07,252.6 522.18,263.74 519.28,245.92 516.39,254.51 513.49,245.92 510.6,250.38 507.71,246.24 
				504.81,253.88 501.92,246.24 499.02,252.29 496.13,245.92 493.23,250.69 490.34,245.92 487.44,259.61 484.55,257.38 
				481.65,265.33 478.76,251.97 475.86,261.2 472.97,255.15 470.08,258.01 467.18,251.65 464.29,270.43 461.39,255.15 458.5,275.84 
				455.6,254.83 452.71,278.38 449.81,259.29 446.92,278.7 444.02,253.56 441.13,268.84 438.23,252.6 435.34,262.15 432.45,247.19 
				429.55,253.24 426.66,246.24 423.76,254.2 420.87,247.83 417.97,261.2 415.08,251.01 412.18,255.47 409.29,248.78 406.39,253.24 
				403.5,244.97 400.6,249.1 397.71,245.6 394.82,252.6 391.92,245.28 389.03,249.42 386.13,246.56 383.24,247.83 380.34,244.97 
				377.45,246.87 374.55,244.97 371.15,258.01 368.25,250.38 365.36,262.79 362.47,246.56 359.57,248.15 356.68,246.24 
				353.78,249.74 350.89,246.24 347.99,250.38 345.1,246.24 342.2,247.51 339.31,245.92 336.41,250.69 333.52,245.92 330.62,254.83 
				327.73,245.92 324.84,251.97 321.94,246.24 319.05,254.83 316.15,247.19 313.26,251.01 310.36,248.47 307.47,254.2 
				304.57,247.19 301.68,259.29 298.78,249.42 295.89,264.38 292.99,251.65 290.1,271.7 287.21,253.24 284.31,272.97 281.42,255.15 
				278.52,278.38 275.63,261.52 272.73,277.75 269.84,267.88 266.94,279.02 264.05,260.56 261.15,277.11 258.26,257.7 
				255.36,268.52 252.47,253.56 249.58,263.43 246.68,245.92 243.79,257.06 240.89,245.92 238,249.74 235.1,245.6 232.21,246.87 
				229.31,245.92 226.42,247.19 223.52,246.56 220.63,249.74 217.74,245.92 214.84,250.69 211.95,245.6 209.05,246.87 
				206.16,245.92 203.26,250.69 200.37,246.56 197.47,248.78 194.58,247.19 191.68,253.24 188.79,248.15 185.89,263.11 183,246.87 
				180.11,255.15 177.21,246.87 174.32,259.92 171.42,248.15 168.53,270.43 165.63,248.47 162.74,277.75 159.84,254.51 
				156.95,268.52 154.05,252.6 151.16,263.74 148.26,245.92 145.37,254.51 142.48,245.92 139.58,250.38 136.69,246.24 
				133.79,253.88 130.9,246.24 128,252.29 125.11,245.92 122.21,250.69 119.32,245.92 116.42,259.61 113.53,257.38 110.63,265.33 
				107.74,251.97 104.85,261.2 101.95,255.15 99.06,258.01 96.16,251.65 93.27,270.43 90.37,255.15 87.48,275.84 84.58,254.83 
				81.69,278.38 78.79,259.29 75.9,278.7 73,253.56 70.11,268.84 67.22,252.6 64.32,262.15 61.43,247.19 58.53,253.24 55.64,246.24 
				52.74,254.2 49.85,247.83 46.95,261.2 44.06,251.01 41.16,255.47 38.27,248.78 35.38,253.24 32.48,244.97 29.59,249.1 
				26.69,245.6 23.8,252.6 20.9,245.28 18.01,249.42 15.11,246.56 12.22,247.83 9.32,244.97 6.43,246.87 3.53,244.97 6.43,243.06 
				9.32,244.97 12.22,242.1 15.11,243.37 18.01,240.51 20.9,244.65 23.8,237.33 26.69,244.33 29.59,240.83 32.48,244.97 
				35.38,236.69 38.27,241.15 41.16,234.46 44.06,238.92 46.95,228.73 49.85,242.1 52.74,235.74 55.64,243.69 58.53,236.69 
				61.43,242.74 64.32,227.78 67.22,237.33 70.11,221.09 73,236.37 75.9,211.23 78.79,230.64 81.69,211.55 84.58,235.1 
				87.48,214.09 90.37,234.78 93.27,219.5 96.16,238.28 99.06,231.92 101.95,234.78 104.85,228.73 107.74,237.96 110.63,224.6 
				113.53,232.55 116.42,230.32 119.32,244.01 122.21,239.24 125.11,244.01 128,237.64 130.9,243.69 133.79,236.05 136.69,243.69 
				139.58,239.55 142.48,244.01 145.37,235.42 148.26,244.01 151.16,226.19 154.05,237.33 156.95,221.41 159.84,235.42 
				162.74,212.18 165.63,241.46 168.53,219.5 171.42,241.78 174.32,230.01 177.21,243.06 180.11,234.78 183,243.06 185.89,226.82 
				188.79,241.78 191.68,236.69 194.58,242.74 197.47,241.15 200.37,243.37 203.26,239.24 206.16,244.01 209.05,243.06 
				211.95,244.33 214.84,239.24 217.74,244.01 220.63,240.19 223.52,243.37 226.42,242.74 229.31,244.01 232.21,243.06 
				235.1,244.33 238,240.19 240.89,244.01 243.79,232.87 246.68,244.01 249.58,226.51 252.47,236.37 255.36,221.41 258.26,232.23 
				261.15,212.82 264.05,229.37 266.94,210.91 269.84,222.05 272.73,212.18 275.63,228.41 278.52,211.55 281.42,234.78 
				284.31,216.96 287.21,236.69 290.1,218.23 292.99,238.28 295.89,225.55 298.78,240.51 301.68,230.64 304.57,242.74 
				307.47,235.74 310.36,241.46 313.26,238.92 316.15,242.74 319.05,235.1 321.94,243.69 324.84,237.96 327.73,244.01 330.62,235.1 
				333.52,244.01 336.41,239.24 339.31,244.01 342.2,242.42 345.1,243.69 347.99,239.55 350.89,243.69 353.78,240.19 356.68,243.69 
				359.57,241.78 362.47,243.37 365.36,227.14 368.25,239.55 371.15,231.92 374.55,244.97 377.45,243.06 380.34,244.97 
				383.24,242.1 386.13,243.37 389.03,240.51 391.92,244.65 394.82,237.33 397.71,244.33 400.6,240.83 403.5,244.97 406.39,236.69 
				409.29,241.15 412.18,234.46 415.08,238.92 417.97,228.73 420.87,242.1 423.76,235.74 426.66,243.69 429.55,236.69 
				432.45,242.74 435.34,227.78 438.23,237.33 441.13,221.09 444.02,236.37 446.92,211.23 449.81,230.64 452.71,211.55 455.6,235.1 
				458.5,214.09 461.39,234.78 464.29,219.5 467.18,238.28 470.08,231.92 472.97,234.78 475.86,228.73 478.76,237.96 481.65,224.6 
				484.55,232.55 487.44,230.32 490.34,244.01 493.23,239.24 496.13,244.01 499.02,237.64 501.92,243.69 504.81,236.05 
				507.71,243.69 510.6,239.55 513.49,244.01 516.39,235.42 519.28,244.01 522.18,226.19 525.07,237.33 527.97,221.41 
				530.86,235.42 533.76,212.18 536.65,241.46 539.55,219.5 542.44,241.78 545.34,230.01 548.23,243.06 551.12,234.78 
				554.02,243.06 556.91,226.82 559.81,241.78 562.7,236.69 565.6,242.74 568.49,241.15 571.39,243.37 574.28,239.24 577.18,244.01 
				580.07,243.06 582.96,244.33 585.86,239.24 588.75,244.01 591.65,240.19 594.54,243.37 597.44,242.74 600.33,244.01 
				603.23,243.06 606.12,244.33 609.02,240.19 611.91,244.01 614.81,232.87 617.7,244.01 620.59,226.51 623.49,236.37 
				626.38,221.41 629.28,232.23 632.17,212.82 635.07,229.37 637.96,210.91 640.86,222.05 643.75,212.18 646.65,228.41 
				649.54,211.55 652.44,234.78 655.33,216.96 658.22,236.69 661.12,218.23 664.01,238.28 666.91,225.55 669.8,240.51 672.7,230.64 
				675.59,242.74 678.49,235.74 681.38,241.46 684.28,238.92 687.17,242.74 690.07,235.1 692.96,243.69 695.85,237.96 
				698.75,244.01 701.64,235.1 704.54,244.01 707.43,239.24 710.33,244.01 713.22,242.42 716.12,243.69 719.01,239.55 
				721.91,243.69 724.8,240.19 727.7,243.69 730.59,241.78 733.48,243.37 736.38,227.14 739.27,239.55 742.17,231.92 			"/>
		</g>
		<g id="XMLID_17_" class="st0">
			<linearGradient id="XMLID_5_" gradientUnits="userSpaceOnUse" x1="3.5344" y1="244.9652" x2="745.0626" y2="244.9652">
				<stop  offset="0" style="stop-color:#333A70"/>
				<stop  offset="0.118" style="stop-color:#7E4D6A"/>
				<stop  offset="0.2472" style="stop-color:#CE695A"/>
				<stop  offset="0.2532" style="stop-color:#CE6A59"/>
				<stop  offset="0.3588" style="stop-color:#D37D4D"/>
				<stop  offset="0.4326" style="stop-color:#D58449"/>
				<stop  offset="0.5449" style="stop-color:#E8BF67"/>
				<stop  offset="0.5455" style="stop-color:#DFC177"/>
				<stop  offset="0.5471" style="stop-color:#C6C5A2"/>
				<stop  offset="0.5485" style="stop-color:#B4C8C1"/>
				<stop  offset="0.5497" style="stop-color:#A9C9D4"/>
				<stop  offset="0.5506" style="stop-color:#A5CADB"/>
				<stop  offset="0.6742" style="stop-color:#549AB3"/>
				<stop  offset="0.9101" style="stop-color:#628DA1"/>
				<stop  offset="1" style="stop-color:#0C7B8B"/>
			</linearGradient>
			<polygon id="XMLID_18_" class="st4" points="745.06,244.97 742.17,248.11 739.27,246.27 736.38,249.26 733.48,245.35 
				730.59,245.73 727.7,245.27 724.8,246.11 721.91,245.27 719.01,246.27 716.12,245.27 713.22,245.58 710.33,245.2 707.43,246.34 
				704.54,245.2 701.64,247.34 698.75,245.2 695.85,246.65 692.96,245.27 690.07,247.34 687.17,245.5 684.28,246.42 681.38,245.81 
				678.49,247.19 675.59,245.5 672.7,248.41 669.8,246.04 666.91,249.64 664.01,246.57 661.12,251.4 658.22,246.96 655.33,251.71 
				652.44,247.42 649.54,253.01 646.65,248.95 643.75,252.86 640.86,250.48 637.96,253.16 635.07,248.72 632.17,252.7 
				629.28,248.03 626.38,250.63 623.49,247.03 620.59,249.41 617.7,245.2 614.81,247.88 611.91,245.2 609.02,246.11 606.12,245.12 
				603.23,245.42 600.33,245.2 597.44,245.5 594.54,245.35 591.65,246.11 588.75,245.2 585.86,246.34 582.96,245.12 580.07,245.42 
				577.18,245.2 574.28,246.34 571.39,245.35 568.49,245.88 565.6,245.5 562.7,246.96 559.81,245.73 556.91,249.33 554.02,245.42 
				551.12,247.42 548.23,245.42 545.34,248.57 542.44,245.73 539.55,251.09 536.65,245.81 533.76,252.86 530.86,247.26 
				527.97,250.63 525.07,246.8 522.18,249.49 519.28,245.2 516.39,247.26 513.49,245.2 510.6,246.27 507.71,245.27 504.81,247.11 
				501.92,245.27 499.02,246.73 496.13,245.2 493.23,246.34 490.34,245.2 487.44,248.49 484.55,247.95 481.65,249.87 478.76,246.65 
				475.86,248.87 472.97,247.42 470.08,248.11 467.18,246.57 464.29,251.09 461.39,247.42 458.5,252.4 455.6,247.34 452.71,253.01 
				449.81,248.41 446.92,253.09 444.02,247.03 441.13,250.71 438.23,246.8 435.34,249.1 432.45,245.5 429.55,246.96 426.66,245.27 
				423.76,247.19 420.87,245.65 417.97,248.87 415.08,246.42 412.18,247.49 409.29,245.88 406.39,246.96 403.5,244.97 400.6,245.96 
				397.71,245.12 394.82,246.8 391.92,245.04 389.03,246.04 386.13,245.35 383.24,245.65 380.34,244.97 377.45,245.42 
				374.55,244.97 371.15,248.11 368.25,246.27 365.36,249.26 362.47,245.35 359.57,245.73 356.68,245.27 353.78,246.11 
				350.89,245.27 347.99,246.27 345.1,245.27 342.2,245.58 339.31,245.2 336.41,246.34 333.52,245.2 330.62,247.34 327.73,245.2 
				324.84,246.65 321.94,245.27 319.05,247.34 316.15,245.5 313.26,246.42 310.36,245.81 307.47,247.19 304.57,245.5 301.68,248.41 
				298.78,246.04 295.89,249.64 292.99,246.57 290.1,251.4 287.21,246.96 284.31,251.71 281.42,247.42 278.52,253.01 275.63,248.95 
				272.73,252.86 269.84,250.48 266.94,253.16 264.05,248.72 261.15,252.7 258.26,248.03 255.36,250.63 252.47,247.03 
				249.58,249.41 246.68,245.2 243.79,247.88 240.89,245.2 238,246.11 235.1,245.12 232.21,245.42 229.31,245.2 226.42,245.5 
				223.52,245.35 220.63,246.11 217.74,245.2 214.84,246.34 211.95,245.12 209.05,245.42 206.16,245.2 203.26,246.34 200.37,245.35 
				197.47,245.88 194.58,245.5 191.68,246.96 188.79,245.73 185.89,249.33 183,245.42 180.11,247.42 177.21,245.42 174.32,248.57 
				171.42,245.73 168.53,251.09 165.63,245.81 162.74,252.86 159.84,247.26 156.95,250.63 154.05,246.8 151.16,249.49 148.26,245.2 
				145.37,247.26 142.48,245.2 139.58,246.27 136.69,245.27 133.79,247.11 130.9,245.27 128,246.73 125.11,245.2 122.21,246.34 
				119.32,245.2 116.42,248.49 113.53,247.95 110.63,249.87 107.74,246.65 104.85,248.87 101.95,247.42 99.06,248.11 96.16,246.57 
				93.27,251.09 90.37,247.42 87.48,252.4 84.58,247.34 81.69,253.01 78.79,248.41 75.9,253.09 73,247.03 70.11,250.71 67.22,246.8 
				64.32,249.1 61.43,245.5 58.53,246.96 55.64,245.27 52.74,247.19 49.85,245.65 46.95,248.87 44.06,246.42 41.16,247.49 
				38.27,245.88 35.38,246.96 32.48,244.97 29.59,245.96 26.69,245.12 23.8,246.8 20.9,245.04 18.01,246.04 15.11,245.35 
				12.22,245.65 9.32,244.97 6.43,245.42 3.53,244.97 6.43,244.51 9.32,244.97 12.22,244.28 15.11,244.58 18.01,243.89 20.9,244.89 
				23.8,243.13 26.69,244.81 29.59,243.97 32.48,244.97 35.38,242.97 38.27,244.05 41.16,242.44 44.06,243.51 46.95,241.06 
				49.85,244.28 52.74,242.74 55.64,244.66 58.53,242.97 61.43,244.43 64.32,240.83 67.22,243.13 70.11,239.22 73,242.9 
				75.9,236.84 78.79,241.52 81.69,236.92 84.58,242.59 87.48,237.53 90.37,242.51 93.27,238.84 96.16,243.36 99.06,241.82 
				101.95,242.51 104.85,241.06 107.74,243.28 110.63,240.06 113.53,241.98 116.42,241.44 119.32,244.74 122.21,243.59 
				125.11,244.74 128,243.2 130.9,244.66 133.79,242.82 136.69,244.66 139.58,243.66 142.48,244.74 145.37,242.67 148.26,244.74 
				151.16,240.45 154.05,243.13 156.95,239.3 159.84,242.67 162.74,237.07 165.63,244.12 168.53,238.84 171.42,244.2 174.32,241.36 
				177.21,244.51 180.11,242.51 183,244.51 185.89,240.6 188.79,244.2 191.68,242.97 194.58,244.43 197.47,244.05 200.37,244.58 
				203.26,243.59 206.16,244.74 209.05,244.51 211.95,244.81 214.84,243.59 217.74,244.74 220.63,243.82 223.52,244.58 
				226.42,244.43 229.31,244.74 232.21,244.51 235.1,244.81 238,243.82 240.89,244.74 243.79,242.05 246.68,244.74 249.58,240.52 
				252.47,242.9 255.36,239.3 258.26,241.9 261.15,237.23 264.05,241.21 266.94,236.77 269.84,239.45 272.73,237.07 275.63,240.98 
				278.52,236.92 281.42,242.51 284.31,238.22 287.21,242.97 290.1,238.53 292.99,243.36 295.89,240.29 298.78,243.89 
				301.68,241.52 304.57,244.43 307.47,242.74 310.36,244.12 313.26,243.51 316.15,244.43 319.05,242.59 321.94,244.66 
				324.84,243.28 327.73,244.74 330.62,242.59 333.52,244.74 336.41,243.59 339.31,244.74 342.2,244.35 345.1,244.66 347.99,243.66 
				350.89,244.66 353.78,243.82 356.68,244.66 359.57,244.2 362.47,244.58 365.36,240.68 368.25,243.66 371.15,241.82 
				374.55,244.97 377.45,244.51 380.34,244.97 383.24,244.28 386.13,244.58 389.03,243.89 391.92,244.89 394.82,243.13 
				397.71,244.81 400.6,243.97 403.5,244.97 406.39,242.97 409.29,244.05 412.18,242.44 415.08,243.51 417.97,241.06 420.87,244.28 
				423.76,242.74 426.66,244.66 429.55,242.97 432.45,244.43 435.34,240.83 438.23,243.13 441.13,239.22 444.02,242.9 
				446.92,236.84 449.81,241.52 452.71,236.92 455.6,242.59 458.5,237.53 461.39,242.51 464.29,238.84 467.18,243.36 470.08,241.82 
				472.97,242.51 475.86,241.06 478.76,243.28 481.65,240.06 484.55,241.98 487.44,241.44 490.34,244.74 493.23,243.59 
				496.13,244.74 499.02,243.2 501.92,244.66 504.81,242.82 507.71,244.66 510.6,243.66 513.49,244.74 516.39,242.67 519.28,244.74 
				522.18,240.45 525.07,243.13 527.97,239.3 530.86,242.67 533.76,237.07 536.65,244.12 539.55,238.84 542.44,244.2 545.34,241.36 
				548.23,244.51 551.12,242.51 554.02,244.51 556.91,240.6 559.81,244.2 562.7,242.97 565.6,244.43 568.49,244.05 571.39,244.58 
				574.28,243.59 577.18,244.74 580.07,244.51 582.96,244.81 585.86,243.59 588.75,244.74 591.65,243.82 594.54,244.58 
				597.44,244.43 600.33,244.74 603.23,244.51 606.12,244.81 609.02,243.82 611.91,244.74 614.81,242.05 617.7,244.74 
				620.59,240.52 623.49,242.9 626.38,239.3 629.28,241.9 632.17,237.23 635.07,241.21 637.96,236.77 640.86,239.45 643.75,237.07 
				646.65,240.98 649.54,236.92 652.44,242.51 655.33,238.22 658.22,242.97 661.12,238.53 664.01,243.36 666.91,240.29 
				669.8,243.89 672.7,241.52 675.59,244.43 678.49,242.74 681.38,244.12 684.28,243.51 687.17,244.43 690.07,242.59 692.96,244.66 
				695.85,243.28 698.75,244.74 701.64,242.59 704.54,244.74 707.43,243.59 710.33,244.74 713.22,244.35 716.12,244.66 
				719.01,243.66 721.91,244.66 724.8,243.82 727.7,244.66 730.59,244.2 733.48,244.58 736.38,240.68 739.27,243.66 742.17,241.82 
							"/>
		</g>
		<g id="XMLID_9_">
			<g id="XMLID_15_">
				<polygon class="st5" points="-22.95,244.97 76.36,244.65 175.67,244.54 374.3,244.32 572.92,244.54 672.23,244.65 
					771.55,244.97 672.23,245.28 572.92,245.4 374.3,245.61 175.67,245.39 76.36,245.28 				"/>
			</g>
			<g id="XMLID_13_">
				<polygon class="st5" points="3.53,244.97 96.23,244.65 188.92,244.54 374.3,244.32 559.68,244.54 652.37,244.65 745.06,244.97 
					652.37,245.28 559.68,245.4 374.3,245.61 188.92,245.39 96.23,245.28 				"/>
			</g>
		</g>
	</g>
</g>
</svg>
